<?xml version="1.0" encoding="utf-8"?><svg xmlns="http://www.w3.org/2000/svg" xmlns:xlink="http://www.w3.org/1999/xlink"><symbol viewBox="0 0 48 48" id="Status=OFF" xmlns="http://www.w3.org/2000/svg"><g filter="url(#cfilter0_d_31_3171)"><rect x="8" width="32" height="32" rx="16"/><path fill-rule="evenodd" clip-rule="evenodd" d="M24.5769 11.7642C24.2545 12.0736 23.7454 12.0736 23.4229 11.7642L22.8459 11.2105C22.1706 10.5624 21.2582 10.1667 20.2499 10.1667C18.1789 10.1667 16.4999 11.8456 16.4999 13.9167C16.4999 15.9022 17.5747 17.5417 19.1264 18.8888C20.6794 20.237 22.5361 21.1312 23.6455 21.5876C23.8774 21.683 24.1224 21.683 24.3544 21.5876C25.4637 21.1312 27.3205 20.237 28.8735 18.8888C30.4251 17.5417 31.4999 15.9022 31.4999 13.9167C31.4999 11.8456 29.821 10.1667 27.7499 10.1667C26.7416 10.1667 25.8293 10.5624 25.1539 11.2105L24.5769 11.7642ZM23.9999 10.008C23.0267 9.074 21.7053 8.5 20.2499 8.5C17.2584 8.5 14.8333 10.9251 14.8333 13.9167C14.8333 19.2235 20.6419 22.1542 23.0114 23.1289C23.6496 23.3914 24.3503 23.3914 24.9884 23.1289C27.358 22.1542 33.1666 19.2235 33.1666 13.9167C33.1666 10.9251 30.7415 8.5 27.7499 8.5C26.2945 8.5 24.9732 9.074 23.9999 10.008Z"/></g><defs><filter id="cfilter0_d_31_3171" x="0" y="0" width="48" height="48" filterUnits="userSpaceOnUse" color-interpolation-filters="sRGB"><feFlood flood-opacity="0" result="BackgroundImageFix"/><feColorMatrix in="SourceAlpha" type="matrix" values="0 0 0 0 0 0 0 0 0 0 0 0 0 0 0 0 0 0 127 0" result="hardAlpha"/><feMorphology radius="8" operator="erode" in="SourceAlpha" result="effect1_dropShadow_31_3171"/><feOffset dy="8"/><feGaussianBlur stdDeviation="8"/><feColorMatrix type="matrix" values="0 0 0 0 0.0583333 0 0 0 0 0.0583333 0 0 0 0 0.0583333 0 0 0 0.12 0"/><feBlend mode="multiply" in2="BackgroundImageFix" result="effect1_dropShadow_31_3171"/><feBlend mode="normal" in="SourceGraphic" in2="effect1_dropShadow_31_3171" result="shape"/></filter></defs></symbol><symbol viewBox="0 0 24 24" id="facebook" xmlns="http://www.w3.org/2000/svg"><path d="M18 3H15C12.2386 3 10 5.23858 10 8V10H6V14H10V21H14V14H18V10H14V8C14 7.44772 14.4477 7 15 7H18V3Z" stroke-width="1.5" stroke-linecap="round" stroke-linejoin="round"/></symbol><symbol viewBox="0 0 24 24" id="instagram" xmlns="http://www.w3.org/2000/svg"><rect x="2" y="2" width="20" height="20" rx="4" stroke-width="1.5"/><circle cx="18" cy="6" r="1"/><circle cx="12" cy="12" r="5" stroke-width="1.5"/></symbol><symbol viewBox="0 0 24 24" id="youtube" xmlns="http://www.w3.org/2000/svg"><rect x="2" y="3" width="20" height="18" rx="4" stroke-width="1.5"/><path d="M10.4472 8.72361L15.2111 11.1056C15.9482 11.4741 15.9482 12.5259 15.2111 12.8944L10.4472 15.2764C9.78231 15.6088 9 15.1253 9 14.382V9.61803C9 8.87465 9.78231 8.39116 10.4472 8.72361Z" stroke-width="1.5" stroke-linecap="round"/></symbol></svg>