<?xml version="1.0" encoding="utf-8"?><svg viewBox="0 0 48 48" xmlns="http://www.w3.org/2000/svg" xmlns:xlink="http://www.w3.org/1999/xlink"><style>:root>svg{display:none}:root>svg:target{display:block}</style><svg fill="none" viewBox="0 0 48 48" id="Status=OFF" xmlns="http://www.w3.org/2000/svg">
    <g filter="url(#aa)">
        <rect x="8" width="32" height="32" rx="16" fill="#fff"/>
        <path fill-rule="evenodd" clip-rule="evenodd" d="M24.577 11.764a.833.833 0 0 1-1.154 0l-.577-.553a3.75 3.75 0 0 0-6.346 2.706c0 1.985 1.075 3.625 2.626 4.972 1.553 1.348 3.41 2.242 4.52 2.699a.914.914 0 0 0 .708 0c1.11-.457 2.966-1.351 4.52-2.7 1.551-1.346 2.626-2.986 2.626-4.971a3.75 3.75 0 0 0-6.346-2.707l-.577.554ZM24 10.008a5.417 5.417 0 0 0-9.167 3.909c0 5.307 5.809 8.237 8.178 9.212a2.58 2.58 0 0 0 1.977 0c2.37-.975 8.179-3.905 8.179-9.212A5.417 5.417 0 0 0 24 10.008Z" fill="#6C7275"/>
    </g>
    <defs>
        <filter id="aa" x="0" y="0" width="48" height="48" filterUnits="userSpaceOnUse" color-interpolation-filters="sRGB">
            <feFlood flood-opacity="0" result="BackgroundImageFix"/>
            <feColorMatrix in="SourceAlpha" values="0 0 0 0 0 0 0 0 0 0 0 0 0 0 0 0 0 0 127 0" result="hardAlpha"/>
            <feMorphology radius="8" in="SourceAlpha" result="effect1_dropShadow_31_3171"/>
            <feOffset dy="8"/>
            <feGaussianBlur stdDeviation="8"/>
            <feColorMatrix values="0 0 0 0 0.0583333 0 0 0 0 0.0583333 0 0 0 0 0.0583333 0 0 0 0.12 0"/>
            <feBlend mode="multiply" in2="BackgroundImageFix" result="effect1_dropShadow_31_3171"/>
            <feBlend in="SourceGraphic" in2="effect1_dropShadow_31_3171" result="shape"/>
        </filter>
    </defs>
</svg></svg>